<svg width="91" height="91" viewBox="0 0 91 91" fill="none" xmlns="http://www.w3.org/2000/svg">
<circle cx="45.5" cy="45.5" r="45" transform="matrix(1 0 0 -1 0 91)" stroke="#333333"/>
<path d="M45.1464 33.536C45.3417 33.3407 45.6583 33.3407 45.8536 33.536L49.0355 36.7179C49.2308 36.9132 49.2308 37.2298 49.0355 37.425C48.8403 37.6203 48.5237 37.6203 48.3284 37.425L45.5 34.5966L42.6716 37.425C42.4763 37.6203 42.1597 37.6203 41.9645 37.425C41.7692 37.2298 41.7692 36.9132 41.9645 36.7179L45.1464 33.536ZM45 57.7378L45 33.8895L46 33.8895L46 57.7378L45 57.7378Z" fill="#333333"/>
</svg>
