<svg width="237" height="152" viewBox="0 0 237 152" fill="none" xmlns="http://www.w3.org/2000/svg">
<path d="M59.6577 71.9894C60.9584 66.796 62.5807 62.9535 64.5247 60.4616C66.4686 57.9698 68.3053 56.7025 70.0348 56.6596C70.7961 56.5963 71.5606 56.7332 72.2526 57.0566C72.9447 57.3801 73.5401 57.8788 73.9798 58.5034C74.9473 59.9766 75.4457 61.7084 75.4092 63.4704C75.4674 65.4925 74.8791 67.4803 73.7297 69.145C73.2064 69.972 72.481 70.6521 71.6219 71.121C70.7629 71.5899 69.7985 71.8322 68.8199 71.825C68.6064 71.8209 68.3975 71.7629 68.2125 71.6563C68.0275 71.5497 67.8725 71.398 67.7619 71.2154C67.6513 71.0328 67.5888 70.8251 67.5801 70.6118C67.5714 70.3985 67.6168 70.1865 67.7121 69.9954C68.3331 68.6718 68.6272 67.2184 68.5697 65.7574C68.534 64.4853 68.0051 63.8635 66.976 63.885C66.2184 63.885 65.418 64.4495 64.5675 65.5287C63.5691 66.878 62.7633 68.3596 62.1734 69.9311C61.3116 72.2412 60.7006 74.6372 60.351 77.0778C59.8754 80.1266 59.684 83.213 59.7792 86.2972C59.7792 86.6974 59.9221 88.3769 60.2009 91.35C58.9287 91.4643 58.114 91.5215 57.7567 91.5286C55.4983 91.5858 53.8545 91.2285 52.8469 90.4566C51.8392 89.6848 51.3031 88.3912 51.2603 86.5616C51.2603 85.7755 51.5819 82.7024 52.2894 77.3637C52.9139 73.1449 53.2269 68.8858 53.2256 64.621C53.2256 63.6134 53.1399 62.6271 53.047 61.6694C52.7754 58.8107 56.4345 57.3099 58.1355 59.6255V59.6683C59.3446 61.3841 59.9982 63.4297 60.0079 65.5287C60.0738 67.6883 59.9567 69.8496 59.6577 71.9894Z" fill="#8FB339"/>
<path d="M96.0419 56.6807C96.622 56.6511 97.2035 56.6774 97.7786 56.7593C98.0674 56.8283 98.3257 56.9901 98.5138 57.2199C98.702 57.4498 98.8095 57.735 98.8201 58.0318C98.8306 58.3286 98.7435 58.6207 98.5722 58.8633C98.4009 59.1059 98.1547 59.2857 97.8715 59.375C94.3032 60.5782 91.2689 62.993 89.2954 66.2002C86.9144 69.702 85.667 73.851 85.722 78.0852C85.8363 82.8497 87.3443 85.1962 90.2459 85.1248C91.9897 85.0819 93.5334 84.0909 94.877 82.1517C97.2592 78.6355 98.853 73.1944 99.6582 65.8285C100.273 60.011 101.59 56.2447 103.61 54.5295H103.646C103.941 54.2688 104.307 54.1026 104.698 54.0526C105.088 54.0025 105.485 54.0709 105.836 54.2488C106.187 54.4267 106.477 54.7059 106.667 55.0503C106.858 55.3947 106.941 55.7884 106.905 56.1804C106.723 58.1308 106.64 60.0891 106.655 62.0479C107.05 77.928 105.647 89.8988 102.445 97.9604C99.2437 106.022 93.8312 110.138 86.208 110.31C83.1158 110.381 80.674 109.617 78.8825 108.016C78.073 107.368 77.4095 106.556 76.9353 105.633C76.4612 104.711 76.1871 103.699 76.131 102.663C75.9595 95.7806 84.65 93.3721 85.8435 94.1583C86.6082 94.6586 88.5164 97.36 89.474 97.7317C88.4663 97.9675 83.7566 98.7322 82.9562 101.527C81.8556 105.293 88.402 109.467 94.0051 102.434C95.0595 100.966 95.8636 99.3337 96.385 97.603C97.9048 93.1577 98.6505 87.1235 98.6219 79.5003C97.7266 82.6762 95.9995 85.5554 93.6192 87.8405C91.3227 89.9655 88.9666 91.0566 86.551 91.1138C85.1857 91.2165 83.817 90.966 82.5766 90.3865C81.3362 89.8069 80.2658 88.9179 79.4686 87.8048C77.801 85.5178 76.9243 82.5686 76.8386 78.9571C76.7113 74.8491 77.6598 70.7792 79.5901 67.1507C81.4868 63.1864 84.7356 60.0289 88.7522 58.2458C91.055 57.248 93.5325 56.7161 96.0419 56.6807Z" fill="#8FB339"/>
<path d="M122.442 78.5565C122.412 80.1427 122.81 81.7077 123.593 83.0876C123.886 83.6185 124.322 84.0569 124.851 84.3536C125.38 84.6503 125.981 84.7935 126.587 84.7671C128.455 84.7242 130.203 83.5902 131.833 81.3652C133.628 78.7941 134.931 75.9131 135.678 72.8677C136.573 69.6875 137.001 66.3943 136.95 63.091C136.9 61.1328 136.814 59.4104 136.678 57.9238C136.648 57.6131 136.682 57.2994 136.779 57.0026C136.876 56.7058 137.034 56.4325 137.242 56.1999C137.45 55.9673 137.705 55.7807 137.989 55.6518C138.274 55.5229 138.582 55.4545 138.894 55.4511C140.919 55.3987 142.455 55.7369 143.504 56.4659C144.554 57.1806 145.104 58.5385 145.154 60.4824C145.154 61.2304 144.752 64.3083 143.947 69.716C143.221 73.9971 142.85 78.3309 142.839 82.6731C142.864 83.7143 142.957 84.7528 143.118 85.7819C143.22 86.3679 143.131 86.9712 142.865 87.5031C142.599 88.035 142.169 88.4675 141.638 88.737C141.108 89.0066 140.505 89.0989 139.919 89.0005C139.332 88.9021 138.793 88.6182 138.379 88.1904L138.294 88.0903C136.864 86.4323 136.107 84.0238 136.028 80.8435C136.028 80.2861 136.071 79.214 136.192 77.6203C135.343 81.1921 133.426 84.4204 130.697 86.8754C128.009 89.2576 125.348 90.4749 122.714 90.5274C121.498 90.5945 120.283 90.3769 119.167 89.8918C118.05 89.4066 117.062 88.6674 116.282 87.733C114.624 85.8272 113.752 83.059 113.666 79.4285C113.573 75.8343 114.142 72.2536 115.345 68.8655C116.486 65.5385 118.402 62.5305 120.934 60.0893C123.199 57.7756 126.274 56.4306 129.51 56.3373H129.567C129.991 56.3377 130.404 56.4707 130.748 56.7175C131.092 56.9644 131.351 57.3127 131.487 57.7138C131.623 58.1149 131.631 58.5485 131.508 58.954C131.386 59.3595 131.139 59.7165 130.804 59.9749C128.715 61.6712 127 63.7807 125.765 66.1712C123.59 69.9365 122.444 74.208 122.442 78.5565Z" fill="#8FB339"/>
<path d="M175.292 54.1444C177.632 54.0873 179.326 54.7686 180.374 56.1884C181.424 57.6177 181.975 59.5688 182.039 62.0488C182.015 65.5644 181.712 69.0726 181.131 72.5402C180.576 75.7877 180.268 79.0728 180.209 82.367C180.259 84.411 180.552 85.8975 181.096 86.8123C181.745 87.8371 182.675 88.6534 183.776 89.1636C183.261 89.2136 182.525 89.2493 181.574 89.2779C178.239 89.3589 175.857 88.9015 174.428 87.9057C172.998 86.91 172.246 85.1233 172.169 82.5457C172.283 79.6454 172.611 76.7574 173.148 73.9052C173.739 70.7362 174.062 67.5231 174.113 64.3C174.049 61.6771 173.227 60.3907 171.633 60.4264C170.726 60.4264 169.704 61.0124 168.582 62.113C167.293 63.4341 166.205 64.9366 165.351 66.5727C164.185 68.8376 163.343 71.2555 162.85 73.7552C162.203 76.6054 161.906 79.5236 161.964 82.4456C162.007 84.0393 162.078 85.4115 162.178 86.5478C162.207 86.8522 162.175 87.1593 162.081 87.4505C161.988 87.7417 161.837 88.0108 161.636 88.2415C161.435 88.4722 161.19 88.6597 160.915 88.7924C160.639 88.9251 160.34 89.0003 160.034 89.0135H159.998C157.735 89.0706 156.096 88.7157 155.081 87.9486C154.067 87.1815 153.54 85.8832 153.502 84.0536C153.502 83.2579 153.843 80.1896 154.524 74.8486C155.15 70.6299 155.466 66.3709 155.467 62.1059C155.467 61.0982 155.382 60.112 155.289 59.1543C155.01 56.2956 158.676 54.7948 160.37 57.1103L160.406 57.1603C161.602 58.8289 162.255 60.825 162.278 62.8778C162.303 65.4061 162.124 67.9324 161.742 70.4319C162.821 66.2053 164.852 62.2817 167.681 58.9613C170.411 55.8072 172.948 54.2016 175.292 54.1444Z" fill="#8FB339"/>
<path d="M199.842 54.3436C199.534 54.0987 199.189 53.9056 198.82 53.7718C198.15 53.5352 197.433 53.4669 196.732 53.573C196.03 53.679 195.365 53.9561 194.796 54.3799C194.227 54.8037 193.771 55.361 193.468 56.0028C193.165 56.6446 193.025 57.3511 193.059 58.0599C193.09 61.8147 192.852 65.5669 192.345 69.2875C191.921 72.2955 191.682 75.3266 191.63 78.3639C191.711 81.4608 192.304 83.8001 193.409 85.3819C194.515 86.9638 196.628 88.112 199.749 88.8267C199.248 87.769 198.962 85.4034 198.891 81.73C198.901 77.0307 199.283 72.3397 200.034 67.7009C200.873 62.0168 201.283 58.877 201.264 58.2814C201.268 56.409 200.794 55.0964 199.842 54.3436Z" fill="#8FB339"/>
<path d="M192.595 32.5678C195.646 38.6711 200.342 43.9168 202.4 46.1466C208.518 35.3193 204.623 20.0752 184.719 22.7767C183.815 26.8505 183.32 31.0042 183.24 35.1763C183.368 43.5142 187.282 47.5379 194.982 47.2472C196.135 47.1908 197.282 47.0451 198.412 46.8113C193.624 41.8443 192.595 32.5678 192.595 32.5678Z" fill="#8FB339"/>
<path d="M216.994 74.033C217.16 80.6652 219.188 83.9313 223.076 83.8312C224.723 83.7476 226.307 83.1698 227.621 82.1732C228.815 81.3229 229.858 80.2794 230.708 79.0858C230.906 78.8024 231.185 78.5868 231.509 78.4681C231.834 78.3495 232.186 78.3336 232.52 78.4226C232.854 78.5117 233.152 78.7013 233.373 78.9658C233.595 79.2302 233.73 79.5566 233.76 79.9005V79.9362C232.434 82.5939 230.353 84.8015 227.778 86.2826C225.568 87.5221 223.093 88.2155 220.56 88.3051C219 88.365 217.446 88.0927 215.999 87.5062C214.553 86.9198 213.247 86.0325 212.17 84.9032C209.826 82.5591 208.599 79.1048 208.489 74.5404C208.346 68.7039 209.83 63.6726 212.942 59.4465C216.053 55.2204 220.341 53.0382 225.806 52.9001C228.86 52.8286 231.18 53.517 232.767 54.9654C233.519 55.6204 234.125 56.4255 234.547 57.329C234.97 58.2324 235.198 59.2142 235.218 60.2112C235.298 62.1535 234.679 64.0601 233.474 65.5856L233.396 65.6785C231.252 68.2942 227.078 66.1573 227.828 62.8769C228.037 61.9918 228.137 61.0847 228.128 60.1755C228.066 57.7503 226.985 56.5592 224.884 56.6021C222.416 56.664 220.455 58.5198 219.002 62.1694C217.528 65.9449 216.845 69.9828 216.994 74.033Z" fill="#8FB339"/>
<path d="M236.755 115.363L236.626 111.79L234.146 114.491C231.869 116.966 229.082 118.917 225.977 120.209C222.746 121.54 219.349 122.427 215.879 122.846C208.832 123.768 201.585 123.403 194.303 122.96C186.86 122.477 179.387 123.067 172.112 124.711C168.45 125.573 164.918 126.914 161.606 128.699C159.372 130.078 157.256 131.642 155.281 133.373C194.531 151.848 223.24 130.572 223.24 130.572C205.194 148.088 170.79 149.446 140.509 126.455C134.935 122.274 129.525 117.879 124.072 113.491C121.02 111.054 117.94 108.624 114.781 106.251C111.622 103.878 108.477 101.52 105.04 99.376C103.313 98.2722 101.521 97.2746 99.6725 96.3887C97.7602 95.4496 95.7555 94.7119 93.6907 94.1875C91.4984 93.6122 89.2254 93.4069 86.9656 93.58C85.8024 93.6884 84.6517 93.9038 83.528 94.2232C82.3988 94.5663 81.8199 95.1237 80.6693 96.0528L83.1992 100.341C85.8149 97.9967 89.2454 97.3963 92.7902 98.0253C96.335 98.6542 99.8369 100.262 103.124 102.178C106.421 104.194 109.608 106.384 112.672 108.738C115.781 111.068 118.854 113.462 121.906 115.885C128.024 120.731 134.106 125.662 140.488 130.3C146.87 134.938 156.211 141.985 163.465 145.494C170.718 149.003 174.521 150.125 182.568 151.454C190.615 152.784 200.156 151.54 208.039 149.275C215.811 147.04 222.821 142.717 228.307 136.775C230.995 133.869 233.149 130.511 234.668 126.855C236.164 123.214 236.875 119.298 236.755 115.363Z" fill="#8FB339"/>
<path d="M39.8541 19.3749C39.8541 19.3749 53.0327 27.901 60.7798 42.6233C61.5516 18.603 45.8145 7.25396 29.7771 0C29.7771 0 29.0053 25.5783 43.7276 37.9779C53.6616 46.3396 58.65 52.5788 60.8798 55.7591C59.2289 46.504 49.931 26.3501 39.8541 19.3749Z" fill="#8FB339"/>
<path d="M64.6533 52.7005C64.6533 52.7005 61.5516 36.4273 74.7302 30.2239C87.9089 24.0205 100.309 29.4521 100.309 29.4521C100.309 29.4521 94.8841 50.3778 69.3059 53.4795C69.3059 53.4795 73.9584 40.3008 87.1299 36.4273C87.1299 36.4273 69.3059 39.529 64.6533 52.7005Z" fill="#8FB339"/>
<path d="M47.3654 112.497C57.035 103.849 72.9723 103.478 73.0509 103.463C69.2774 102.284 59.1504 100.847 56.6633 100.662C50.592 100.188 44.491 101.062 38.7964 103.22C33.9509 105.1 32.6359 105.9 27.576 107.079C22.5161 108.259 13.2396 109.381 10.2165 105.15C13.2682 115.87 24.1456 123.896 35.316 123.596C43.4204 123.374 50.8673 119.35 57.9569 115.42C61.9805 113.197 67.6265 109.181 71.6215 106.565C63.56 106.422 55.0982 108.63 47.3654 112.497Z" fill="#8FB339"/>
<path d="M164.679 110.339L166.03 110.11V100.605L164.679 100.369V99.3184H174.006V102.22H172.577L172.441 100.605H167.681V104.764H172.348V106.051H167.681V110.11L169.032 110.339V111.389H164.679V110.339Z" fill="#8FB339"/>
<path d="M193.445 105.414C193.5 107.01 192.96 108.569 191.93 109.788C191.45 110.354 190.849 110.805 190.171 111.107C189.493 111.409 188.756 111.554 188.014 111.532C187.29 111.553 186.57 111.407 185.912 111.104C185.254 110.802 184.674 110.351 184.219 109.788C183.23 108.55 182.723 106.997 182.789 105.414V105.243C182.726 103.658 183.233 102.104 184.219 100.862C184.674 100.298 185.253 99.846 185.911 99.5423C186.57 99.2386 187.289 99.091 188.014 99.1109C188.756 99.0899 189.494 99.2364 190.172 99.5396C190.85 99.8427 191.451 100.295 191.93 100.862C192.959 102.085 193.499 103.645 193.445 105.243V105.414ZM191.809 105.221C191.861 103.996 191.507 102.787 190.801 101.784C190.481 101.351 190.059 101.003 189.573 100.771C189.087 100.54 188.552 100.431 188.014 100.454C187.493 100.437 186.976 100.55 186.511 100.783C186.045 101.017 185.645 101.363 185.348 101.791C184.675 102.805 184.34 104.006 184.39 105.221V105.414C184.336 106.637 184.671 107.846 185.348 108.866C185.645 109.293 186.045 109.639 186.511 109.871C186.977 110.103 187.494 110.215 188.014 110.195C188.553 110.22 189.09 110.113 189.579 109.883C190.067 109.652 190.492 109.306 190.815 108.873C191.517 107.861 191.866 106.645 191.809 105.414V105.221Z" fill="#8FB339"/>
<path d="M213.299 105.414C213.358 107.011 212.818 108.571 211.784 109.788C211.305 110.355 210.704 110.807 210.025 111.109C209.347 111.411 208.609 111.555 207.867 111.532C207.143 111.553 206.424 111.407 205.766 111.105C205.107 110.802 204.528 110.352 204.072 109.788C203.084 108.55 202.577 106.997 202.643 105.414V105.243C202.579 103.659 203.087 102.104 204.072 100.862C204.528 100.298 205.107 99.8462 205.765 99.5425C206.423 99.2388 207.143 99.0912 207.867 99.111C208.61 99.0891 209.348 99.2351 210.026 99.5383C210.704 99.8415 211.305 100.294 211.784 100.862C212.816 102.083 213.356 103.645 213.299 105.243V105.414ZM211.669 105.222C211.722 103.996 211.368 102.787 210.662 101.784C210.34 101.351 209.917 101.004 209.43 100.773C208.942 100.541 208.406 100.432 207.867 100.455C207.348 100.436 206.832 100.549 206.367 100.782C205.902 101.016 205.504 101.363 205.209 101.791C204.532 102.803 204.197 104.005 204.251 105.222V105.414C204.192 106.638 204.528 107.848 205.209 108.866C205.504 109.294 205.903 109.64 206.368 109.872C206.832 110.104 207.348 110.216 207.867 110.196C208.408 110.221 208.946 110.114 209.436 109.884C209.926 109.653 210.351 109.306 210.676 108.874C211.375 107.86 211.724 106.645 211.669 105.414V105.222Z" fill="#8FB339"/>
<path d="M227.457 99.3187C228.153 99.2787 228.85 99.3858 229.502 99.633C230.154 99.8802 230.747 100.262 231.242 100.753C231.737 101.245 232.122 101.835 232.374 102.486C232.626 103.136 232.738 103.832 232.702 104.529V106.18C232.738 106.876 232.626 107.572 232.374 108.223C232.122 108.873 231.737 109.464 231.242 109.955C230.747 110.446 230.154 110.828 229.502 111.075C228.85 111.323 228.153 111.43 227.457 111.39H222.404V110.339L223.755 110.11V100.605L222.404 100.369V99.3187H227.457ZM225.384 100.605V110.11H227.457C227.952 110.136 228.446 110.05 228.903 109.86C229.361 109.669 229.77 109.379 230.101 109.01C230.77 108.212 231.115 107.191 231.066 106.151V104.486C231.105 103.462 230.761 102.461 230.101 101.677C229.77 101.308 229.361 101.018 228.903 100.827C228.446 100.637 227.952 100.551 227.457 100.577L225.384 100.605Z" fill="#8FB339"/>
<path d="M29.5127 47.2901C34.2032 47.8718 38.5637 50.0079 41.8981 53.3577C33.9651 32.9394 15.6909 35.3765 5.44956 50.1488C-5.05618 65.3 -0.61089 94.323 20.8651 93.8013C23.8879 93.7574 26.8669 93.073 29.6056 91.793C32.1197 90.6425 34.3627 88.9743 36.1878 86.8975C37.9749 84.807 39.4219 82.4483 40.4758 79.908C41.9046 76.6197 42.8344 73.1366 43.2345 69.5737C44.5209 52.7645 29.5127 47.2901 29.5127 47.2901ZM33.3148 76.5918C32.5063 79.9521 30.9665 83.0927 28.8052 85.7897C26.7374 88.2863 24.3146 89.568 21.5369 89.6347C18.2018 89.7157 15.6718 88.1887 13.9471 85.0536C12.2223 81.9186 11.298 77.8688 11.1741 72.9041C11.097 69.2386 11.6854 65.5895 12.9108 62.134C14.0097 58.8063 15.8275 55.7613 18.2351 53.2148C20.5364 50.8326 23.0068 49.6105 25.6463 49.5485C28.2859 49.4866 30.4013 50.6777 31.9926 53.1219C33.5887 55.5804 34.4535 59.5897 34.5869 65.1499C34.6983 68.997 34.2726 72.8409 33.3219 76.5704L33.3148 76.5918Z" fill="#8FB339"/>
</svg>
