<svg width="223" height="24" viewBox="0 0 223 24" fill="none" xmlns="http://www.w3.org/2000/svg">
<g clip-path="url(#clip0_7_2643)">
<path d="M58.5 12C58.5 5.37258 53.1274 0 46.5 0C39.8726 0 34.5 5.37258 34.5 12C34.5 17.9895 38.8882 22.954 44.625 23.8542V15.4688H41.5781V12H44.625V9.35625C44.625 6.34875 46.4166 4.6875 49.1576 4.6875C50.4701 4.6875 51.8438 4.92188 51.8438 4.92188V7.875H50.3306C48.84 7.875 48.375 8.80008 48.375 9.75V12H51.7031L51.1711 15.4688H48.375V23.8542C54.1118 22.954 58.5 17.9895 58.5 12Z" fill="#8FB339"/>
</g>
<g clip-path="url(#clip1_7_2643)">
<path d="M107.05 21.7502C116.105 21.7502 121.058 14.2469 121.058 7.7421C121.058 7.53117 121.054 7.31554 121.044 7.1046C122.008 6.4077 122.839 5.5445 123.5 4.55554C122.603 4.95484 121.65 5.21563 120.674 5.32898C121.701 4.71315 122.471 3.74572 122.839 2.60601C121.873 3.1788 120.816 3.58286 119.713 3.80085C118.971 3.0118 117.989 2.48936 116.92 2.3143C115.85 2.13923 114.753 2.32129 113.798 2.83234C112.842 3.34339 112.082 4.15495 111.634 5.14156C111.186 6.12816 111.075 7.23486 111.32 8.29054C109.362 8.19233 107.448 7.68395 105.7 6.79834C103.952 5.91274 102.41 4.66968 101.173 3.14976C100.544 4.23349 100.352 5.51589 100.635 6.73633C100.918 7.95678 101.655 9.02369 102.696 9.72023C101.915 9.69541 101.15 9.48492 100.466 9.10617V9.1671C100.465 10.3044 100.858 11.4068 101.578 12.287C102.299 13.1672 103.301 13.7708 104.416 13.9952C103.692 14.1934 102.932 14.2222 102.195 14.0796C102.509 15.0577 103.122 15.9131 103.946 16.5266C104.77 17.14 105.765 17.4808 106.792 17.5015C105.048 18.8714 102.894 19.6144 100.677 19.6109C100.283 19.6103 99.8904 19.5861 99.5 19.5387C101.753 20.984 104.374 21.7516 107.05 21.7502Z" fill="#8FB339"/>
</g>
<g clip-path="url(#clip2_7_2643)">
<path d="M176.5 2.16094C179.706 2.16094 180.086 2.175 181.347 2.23125C182.519 2.28281 183.152 2.47969 183.573 2.64375C184.131 2.85938 184.534 3.12188 184.952 3.53906C185.373 3.96094 185.631 4.35938 185.847 4.91719C186.011 5.33906 186.208 5.97656 186.259 7.14375C186.316 8.40937 186.33 8.78906 186.33 11.9906C186.33 15.1969 186.316 15.5766 186.259 16.8375C186.208 18.0094 186.011 18.6422 185.847 19.0641C185.631 19.6219 185.369 20.025 184.952 20.4422C184.53 20.8641 184.131 21.1219 183.573 21.3375C183.152 21.5016 182.514 21.6984 181.347 21.75C180.081 21.8062 179.702 21.8203 176.5 21.8203C173.294 21.8203 172.914 21.8062 171.653 21.75C170.481 21.6984 169.848 21.5016 169.427 21.3375C168.869 21.1219 168.466 20.8594 168.048 20.4422C167.627 20.0203 167.369 19.6219 167.153 19.0641C166.989 18.6422 166.792 18.0047 166.741 16.8375C166.684 15.5719 166.67 15.1922 166.67 11.9906C166.67 8.78438 166.684 8.40469 166.741 7.14375C166.792 5.97187 166.989 5.33906 167.153 4.91719C167.369 4.35938 167.631 3.95625 168.048 3.53906C168.47 3.11719 168.869 2.85938 169.427 2.64375C169.848 2.47969 170.486 2.28281 171.653 2.23125C172.914 2.175 173.294 2.16094 176.5 2.16094ZM176.5 0C173.242 0 172.834 0.0140625 171.555 0.0703125C170.28 0.126563 169.403 0.332812 168.644 0.628125C167.852 0.9375 167.181 1.34531 166.516 2.01562C165.845 2.68125 165.438 3.35156 165.128 4.13906C164.833 4.90313 164.627 5.775 164.57 7.05C164.514 8.33437 164.5 8.74219 164.5 12C164.5 15.2578 164.514 15.6656 164.57 16.9453C164.627 18.2203 164.833 19.0969 165.128 19.8563C165.438 20.6484 165.845 21.3188 166.516 21.9844C167.181 22.65 167.852 23.0625 168.639 23.3672C169.403 23.6625 170.275 23.8687 171.55 23.925C172.83 23.9812 173.238 23.9953 176.495 23.9953C179.753 23.9953 180.161 23.9812 181.441 23.925C182.716 23.8687 183.592 23.6625 184.352 23.3672C185.139 23.0625 185.809 22.65 186.475 21.9844C187.141 21.3188 187.553 20.6484 187.858 19.8609C188.153 19.0969 188.359 18.225 188.416 16.95C188.472 15.6703 188.486 15.2625 188.486 12.0047C188.486 8.74688 188.472 8.33906 188.416 7.05938C188.359 5.78438 188.153 4.90781 187.858 4.14844C187.562 3.35156 187.155 2.68125 186.484 2.01562C185.819 1.35 185.148 0.9375 184.361 0.632812C183.597 0.3375 182.725 0.13125 181.45 0.075C180.166 0.0140625 179.758 0 176.5 0Z" fill="#8FB339"/>
<path d="M176.5 5.83594C173.097 5.83594 170.336 8.59688 170.336 12C170.336 15.4031 173.097 18.1641 176.5 18.1641C179.903 18.1641 182.664 15.4031 182.664 12C182.664 8.59688 179.903 5.83594 176.5 5.83594ZM176.5 15.9984C174.292 15.9984 172.502 14.2078 172.502 12C172.502 9.79219 174.292 8.00156 176.5 8.00156C178.708 8.00156 180.498 9.79219 180.498 12C180.498 14.2078 178.708 15.9984 176.5 15.9984Z" fill="#8FB339"/>
<path d="M184.347 5.59238C184.347 6.38926 183.7 7.03145 182.908 7.03145C182.111 7.03145 181.469 6.38457 181.469 5.59238C181.469 4.79551 182.116 4.15332 182.908 4.15332C183.7 4.15332 184.347 4.8002 184.347 5.59238Z" fill="#8FB339"/>
</g>
<defs>
<clipPath id="clip0_7_2643">
<rect width="24" height="24" fill="white" transform="translate(34.5)"/>
</clipPath>
<clipPath id="clip1_7_2643">
<rect width="24" height="24" fill="white" transform="translate(99.5)"/>
</clipPath>
<clipPath id="clip2_7_2643">
<rect width="24" height="24" fill="white" transform="translate(164.5)"/>
</clipPath>
</defs>
</svg>
